<svg width="24" height="18" viewBox="0 0 24 18" fill="none" xmlns="http://www.w3.org/2000/svg">
<path id="Vector" d="M23 3.16016C22.8 1.96016 21.8 1.06016 20.6 0.860156C18.8 0.460156 15.5 0.160156 11.9 0.160156C8.29996 0.160156 4.99996 0.460156 3.19996 0.860156C1.99996 1.06016 0.999957 1.96016 0.699957 3.16016C0.499957 4.56016 0.299957 6.46016 0.299957 8.86016C0.299957 11.2602 0.499957 13.1602 0.799957 14.5602C0.999957 15.7602 1.99996 16.6602 3.19996 16.8602C5.09996 17.2602 8.39996 17.5602 11.9 17.5602C15.4 17.5602 18.7 17.2602 20.6 16.8602C21.8 16.5602 22.8 15.7602 23 14.5602C23.2 13.1602 23.5 11.2602 23.5 8.86016C23.6 6.46016 23.3 4.56016 23 3.16016ZM8.99996 12.6602V5.06016L15.6 8.86016L8.99996 12.6602Z" fill="white" fill-opacity="0.6"/>
</svg>
