<svg width="24" height="25" viewBox="0 0 24 25" fill="none" xmlns="http://www.w3.org/2000/svg">
<g id="Layer_1">
<g id="Group">
<path id="Vector" d="M4.49996 7.76011C5.99996 7.76011 7.19996 6.86011 7.19996 5.56011C7.09996 4.26011 5.99996 3.36011 4.49996 3.36011C2.99996 3.36011 1.89996 4.36011 1.89996 5.56011C1.89996 6.86011 2.99996 7.76011 4.49996 7.76011Z" fill="white" fill-opacity="0.6"/>
<path id="Vector_2" d="M17.2 8.66016C15.7 8.66016 14.5 9.26016 13.8 9.76016V9.16016C13.8 8.96016 13.6 8.76016 13.4 8.76016H8.89997C8.69997 8.66016 8.49997 8.86016 8.49997 9.16016V21.8602C8.49997 22.0602 8.69997 22.2602 8.89997 22.2602H12.9C13.1 22.2602 13.3 22.0602 13.3 21.8602V15.0602C13.3 14.0602 14.1 13.1602 15.1 13.0602C15.2 13.0602 15.2 13.0602 15.3 13.0602C15.4 13.0602 15.4 13.0602 15.5 13.0602C16.5 13.1602 17.3 13.9602 17.3 15.0602V21.8602C17.3 22.0602 17.5 22.2602 17.7 22.2602H21.7C21.9 22.2602 22.1 22.0602 22.1 21.8602V14.3602C22.1 11.5602 20.6 8.66016 17.2 8.66016Z" fill="white" fill-opacity="0.6"/>
<path id="Vector_3" d="M6.69996 8.66016H2.29996C2.09996 8.66016 1.89996 8.86016 1.89996 9.16016V21.8602C1.89996 22.0602 2.09996 22.2602 2.29996 22.2602H6.69996C6.89996 22.2602 7.09996 22.0602 7.09996 21.8602V9.16016C7.19996 8.86016 6.99996 8.66016 6.69996 8.66016Z" fill="white" fill-opacity="0.6"/>
</g>
</g>
</svg>
