<svg width="111" height="111" viewBox="0 0 111 111" fill="none" xmlns="http://www.w3.org/2000/svg">
<g clip-path="url(#clip0_1_54)">
<path d="M55.5531 0.481934C70.2177 0.481934 84.2817 6.30201 94.6511 16.6618C105.021 27.0216 110.846 41.0725 110.846 55.7235C110.846 70.3744 105.021 84.4253 94.6511 94.7851C84.2817 105.145 70.2177 110.965 55.5531 110.965C40.8885 110.965 26.8245 105.145 16.4551 94.7851C6.08568 84.4253 0.260193 70.3744 0.260193 55.7235C0.260193 41.0725 6.08568 27.0216 16.4551 16.6618C26.8245 6.30201 40.8885 0.481934 55.5531 0.481934ZM10.6276 55.7235C10.6276 67.6274 15.3608 79.0437 23.786 87.4611C32.2111 95.8784 43.6381 100.607 55.5531 100.607C67.4681 100.607 78.8951 95.8784 87.3202 87.4611C95.7454 79.0437 100.479 67.6274 100.479 55.7235C100.479 43.8195 95.7454 32.4032 87.3202 23.9859C78.8951 15.5685 67.4681 10.8397 55.5531 10.8397C43.6381 10.8397 32.2111 15.5685 23.786 23.9859C15.3608 32.4032 10.6276 43.8195 10.6276 55.7235ZM44.3494 36.5754L73.8205 54.2457C74.0752 54.3994 74.2859 54.6162 74.4321 54.8751C74.5783 55.134 74.6551 55.4262 74.6551 55.7235C74.6551 56.0207 74.5783 56.3129 74.4321 56.5718C74.2859 56.8307 74.0752 57.0475 73.8205 57.2012L44.3494 74.8716C44.0873 75.0293 43.788 75.1146 43.4821 75.1189C43.1762 75.1233 42.8746 75.0463 42.6082 74.896C42.3418 74.7458 42.1201 74.5275 41.9658 74.2636C41.8115 73.9996 41.7301 73.6995 41.7299 73.3938V38.06C41.7288 37.7537 41.8093 37.4527 41.9632 37.1878C42.117 36.9229 42.3386 36.7037 42.6052 36.5526C42.8718 36.4015 43.1739 36.3239 43.4804 36.3279C43.7869 36.3319 44.0868 36.4173 44.3494 36.5754Z" fill="white"/>
</g>
<defs>
<clipPath id="clip0_1_54">
<rect width="110.586" height="110.483" fill="white" transform="translate(0.260193 0.481934)"/>
</clipPath>
</defs>
</svg>
