<svg width="24" height="20" viewBox="0 0 24 20" fill="none" xmlns="http://www.w3.org/2000/svg">
<path id="Vector" d="M20.9 3.36011C21.9 2.76011 22.6 1.76011 23 0.760108C22 1.36011 21.1 1.76011 20 1.96011C19 0.960107 17.8 0.360107 16.4 0.360107C13.8 0.360107 11.6 2.46011 11.6 5.16011C11.6 5.56011 11.6 5.96011 11.7 6.26011C7.69996 6.06011 4.19996 4.26011 1.89996 1.26011C1.49996 1.96011 1.29996 2.86011 1.29996 3.66011C1.29996 5.36011 2.19996 6.76011 3.39996 7.66011C2.69996 7.56011 1.89996 7.36011 1.29996 7.06011C1.29996 7.06011 1.29996 7.06011 1.29996 7.16011C1.29996 9.46011 2.99996 11.4601 5.09996 11.8601C4.69996 11.9601 4.29996 12.0601 3.79996 12.0601C3.49996 12.0601 3.19996 12.0601 2.89996 11.9601C3.49996 13.8601 5.19996 15.2601 7.39996 15.2601C5.69996 16.5601 3.69996 17.2601 1.49996 17.2601C1.09996 17.2601 0.699957 17.2601 0.299957 17.1601C2.39996 18.5601 4.99996 19.2601 7.59996 19.2601C16.4 19.2601 21.2 11.9601 21.2 5.66011C21.2 5.46011 21.2 5.26011 21.2 5.06011C22.2 4.36011 22.9 3.46011 23.6 2.56011C22.8 3.06011 21.9 3.26011 20.9 3.36011Z" fill="white" fill-opacity="0.6"/>
</svg>
